<mxfile host="Electron" agent="Mozilla/5.0 (X11; Linux x86_64) AppleWebKit/537.36 (KHTML, like Gecko) draw.io/26.0.9 Chrome/128.0.6613.186 Electron/32.2.5 Safari/537.36" version="26.0.9">
  <diagram name="Page-1" id="2YBvvXClWsGukQMizWep">
    <mxGraphModel dx="2045" dy="725" grid="1" gridSize="10" guides="1" tooltips="1" connect="1" arrows="1" fold="1" page="1" pageScale="1" pageWidth="850" pageHeight="1100" math="0" shadow="0">
      <root>
        <mxCell id="0" />
        <mxCell id="1" parent="0" />
        <mxCell id="uz-hSmx-RZ37fCsN3LQ2-4" style="edgeStyle=orthogonalEdgeStyle;rounded=0;orthogonalLoop=1;jettySize=auto;html=1;" edge="1" parent="1" source="uz-hSmx-RZ37fCsN3LQ2-1">
          <mxGeometry relative="1" as="geometry">
            <mxPoint x="85" y="620" as="targetPoint" />
          </mxGeometry>
        </mxCell>
        <mxCell id="uz-hSmx-RZ37fCsN3LQ2-1" value="Client" style="rounded=0;whiteSpace=wrap;html=1;" vertex="1" parent="1">
          <mxGeometry x="30" y="130" width="110" height="60" as="geometry" />
        </mxCell>
        <mxCell id="uz-hSmx-RZ37fCsN3LQ2-5" style="edgeStyle=orthogonalEdgeStyle;rounded=0;orthogonalLoop=1;jettySize=auto;html=1;" edge="1" parent="1" source="uz-hSmx-RZ37fCsN3LQ2-2">
          <mxGeometry relative="1" as="geometry">
            <mxPoint x="475" y="660" as="targetPoint" />
          </mxGeometry>
        </mxCell>
        <mxCell id="uz-hSmx-RZ37fCsN3LQ2-2" value="Time Server" style="rounded=0;whiteSpace=wrap;html=1;" vertex="1" parent="1">
          <mxGeometry x="420" y="130" width="110" height="60" as="geometry" />
        </mxCell>
        <mxCell id="uz-hSmx-RZ37fCsN3LQ2-6" value="" style="endArrow=classic;html=1;rounded=0;" edge="1" parent="1">
          <mxGeometry width="50" height="50" relative="1" as="geometry">
            <mxPoint x="90" y="230" as="sourcePoint" />
            <mxPoint x="480" y="260" as="targetPoint" />
          </mxGeometry>
        </mxCell>
        <mxCell id="uz-hSmx-RZ37fCsN3LQ2-7" value="Request" style="edgeLabel;html=1;align=center;verticalAlign=middle;resizable=0;points=[];" vertex="1" connectable="0" parent="uz-hSmx-RZ37fCsN3LQ2-6">
          <mxGeometry x="-0.0604" y="-3" relative="1" as="geometry">
            <mxPoint y="-27" as="offset" />
          </mxGeometry>
        </mxCell>
        <mxCell id="uz-hSmx-RZ37fCsN3LQ2-8" value="" style="curved=1;endArrow=classic;html=1;rounded=0;" edge="1" parent="1">
          <mxGeometry width="50" height="50" relative="1" as="geometry">
            <mxPoint x="90" y="480" as="sourcePoint" />
            <mxPoint x="90" y="230" as="targetPoint" />
            <Array as="points">
              <mxPoint x="-30" y="350" />
              <mxPoint x="-80" y="300" />
            </Array>
          </mxGeometry>
        </mxCell>
        <mxCell id="uz-hSmx-RZ37fCsN3LQ2-10" value="&amp;nbsp;30 Second&amp;nbsp;&lt;div&gt;Retransmit Window&lt;/div&gt;" style="edgeLabel;html=1;align=center;verticalAlign=middle;resizable=0;points=[];" vertex="1" connectable="0" parent="uz-hSmx-RZ37fCsN3LQ2-8">
          <mxGeometry x="0.314" y="-11" relative="1" as="geometry">
            <mxPoint x="-77" y="23" as="offset" />
          </mxGeometry>
        </mxCell>
        <mxCell id="uz-hSmx-RZ37fCsN3LQ2-11" value="" style="endArrow=classic;html=1;rounded=0;" edge="1" parent="1">
          <mxGeometry width="50" height="50" relative="1" as="geometry">
            <mxPoint x="480" y="300" as="sourcePoint" />
            <mxPoint x="90" y="390" as="targetPoint" />
          </mxGeometry>
        </mxCell>
        <mxCell id="uz-hSmx-RZ37fCsN3LQ2-12" value="Response" style="edgeLabel;html=1;align=center;verticalAlign=middle;resizable=0;points=[];" vertex="1" connectable="0" parent="uz-hSmx-RZ37fCsN3LQ2-11">
          <mxGeometry x="-0.064" y="4" relative="1" as="geometry">
            <mxPoint x="-18" y="-16" as="offset" />
          </mxGeometry>
        </mxCell>
        <mxCell id="uz-hSmx-RZ37fCsN3LQ2-13" value="" style="endArrow=none;html=1;rounded=0;" edge="1" parent="1">
          <mxGeometry width="50" height="50" relative="1" as="geometry">
            <mxPoint y="490" as="sourcePoint" />
            <mxPoint x="80" y="410" as="targetPoint" />
          </mxGeometry>
        </mxCell>
        <mxCell id="uz-hSmx-RZ37fCsN3LQ2-14" value="Response was received in time.&lt;br&gt;&lt;br&gt;No retransmission needed" style="text;html=1;align=center;verticalAlign=middle;whiteSpace=wrap;rounded=0;" vertex="1" parent="1">
          <mxGeometry x="-200" y="480" width="220" height="100" as="geometry" />
        </mxCell>
      </root>
    </mxGraphModel>
  </diagram>
</mxfile>
